<?xml version="1.0" encoding="UTF-8" standalone="no"?>
<!DOCTYPE svg PUBLIC "-//W3C//DTD SVG 1.1//EN" "http://www.w3.org/Graphics/SVG/1.1/DTD/svg11.dtd">
<svg width="100%" height="100%" viewBox="0 0 645 210" version="1.1" xmlns="http://www.w3.org/2000/svg" xmlns:xlink="http://www.w3.org/1999/xlink" xml:space="preserve" xmlns:serif="http://www.serif.com/" style="fill-rule:evenodd;clip-rule:evenodd;stroke-linecap:round;stroke-linejoin:round;stroke-miterlimit:1.5;">
    <g transform="matrix(1,0,0,1,-2765.29,-1490.35)">
        <g transform="matrix(6.77878,0,0,4.50988,-2425.77,-990.606)">
            <g transform="matrix(0.373438,0,0,0.34759,535.826,486.165)">
                <g id="jauge-pollution" serif:id="jauge pollution">
                    <path d="M869.645,218.016C869.645,199.876 860.525,185.149 849.292,185.149L636.851,185.149C625.618,185.149 616.498,199.876 616.498,218.016L616.498,283.75C616.498,301.89 625.618,316.618 636.851,316.618L849.292,316.618C860.525,316.618 869.645,301.89 869.645,283.75L869.645,218.016Z" style="fill:white;"/>
                    <clipPath id="_clip1">
                        <path d="M869.645,218.016C869.645,199.876 860.525,185.149 849.292,185.149L636.851,185.149C625.618,185.149 616.498,199.876 616.498,218.016L616.498,283.75C616.498,301.89 625.618,316.618 636.851,316.618L849.292,316.618C860.525,316.618 869.645,301.89 869.645,283.75L869.645,218.016Z"/>
                    </clipPath>
                    <g clip-path="url(#_clip1)">
                        <g transform="matrix(0.263198,0,0,1,453.257,1.0438)">
                            <rect x="616.498" y="185.149" width="253.147" height="131.468" style="fill:rgb(255,162,0);stroke:black;stroke-width:3.03px;"/>
                        </g>
                    </g>
                    <path d="M869.645,218.016C869.645,199.876 860.525,185.149 849.292,185.149L636.851,185.149C625.618,185.149 616.498,199.876 616.498,218.016L616.498,283.75C616.498,301.89 625.618,316.618 636.851,316.618L849.292,316.618C860.525,316.618 869.645,301.89 869.645,283.75L869.645,218.016Z" style="fill:none;stroke:black;stroke-width:1.73px;"/>
                </g>
            </g>
        </g>
    </g>
</svg>
