<?xml version="1.0" encoding="UTF-8" standalone="no"?>
<!DOCTYPE svg PUBLIC "-//W3C//DTD SVG 1.1//EN" "http://www.w3.org/Graphics/SVG/1.1/DTD/svg11.dtd">
<svg width="100%" height="100%" viewBox="0 0 473 473" version="1.1" xmlns="http://www.w3.org/2000/svg" xmlns:xlink="http://www.w3.org/1999/xlink" xml:space="preserve" xmlns:serif="http://www.serif.com/" style="fill-rule:evenodd;clip-rule:evenodd;stroke-linejoin:round;stroke-miterlimit:1.41421;">
    <g transform="matrix(1,0,0,1,-1744.54,-70.8643)">
        <g id="Logo-Charbon" serif:id="Logo Charbon" transform="matrix(5.65956,0,0,4.04301,-1539.51,-775.376)">
            <g transform="matrix(0.614663,0,0,0.923898,406.358,29.5247)">
                <path d="M407.663,248.101C407.663,248.101 427.08,275.105 414.498,306.195L400.207,303.112L392.802,262.625L407.663,248.101Z" style="fill:rgb(48,50,49);fill-rule:nonzero;"/>
            </g>
            <g transform="matrix(0.614663,0,0,0.923898,406.358,29.5247)">
                <path d="M282.931,279.711C282.931,279.711 286.348,264.333 295.746,254.936C295.746,254.936 284.088,245.258 295.897,226.603L359.82,246.393L352.131,272.034L282.931,279.711Z" style="fill:rgb(25,27,30);fill-rule:nonzero;"/>
            </g>
            <g transform="matrix(0.614663,0,0,0.923898,406.358,29.5247)">
                <path d="M372.635,262.625C372.635,262.625 385.327,226.603 372.635,201.967C372.635,201.967 392.285,204.53 395.702,213.073C395.702,213.073 393.139,234.432 407.663,248.101C407.663,248.101 408.517,262.625 400.828,271.168L372.635,262.625Z" style="fill:rgb(31,31,29);fill-rule:nonzero;"/>
            </g>
            <g transform="matrix(0.614663,0,0,0.923898,406.358,29.5247)">
                <path d="M282.931,279.711C282.931,279.711 316.527,267.464 339.317,272.022C343.588,272.876 364.325,272.272 373.581,262.911L400.828,271.168C400.828,271.168 405.1,296.798 414.498,306.195L383.742,317.302C383.742,317.302 298.309,338.66 282.931,279.711Z" style="fill:rgb(0,1,3);fill-rule:nonzero;"/>
            </g>
            <g transform="matrix(0.614663,0,0,0.923898,406.358,29.5247)">
                <path d="M372.635,201.967C341.88,183.172 318.956,206.239 318.956,206.239C316.093,209.591 311.282,212.729 307.117,215.065L307.122,215.068L306.985,215.143C306.798,215.247 306.632,215.334 306.448,215.435C294.127,221.652 291.344,235.943 290.766,240.549C348.198,236.106 339.317,272.022 339.317,272.022C364.182,274.065 373.582,262.911 373.582,262.911C392.377,237.281 372.635,201.967 372.635,201.967Z" style="fill:rgb(48,47,48);fill-rule:nonzero;"/>
            </g>
            <g transform="matrix(0.614663,0,0,0.923898,406.358,29.5247)">
                <path d="M307.122,215.068L307.117,215.065L306.985,215.143L307.122,215.068Z" style="fill:rgb(76,77,75);fill-rule:nonzero;"/>
            </g>
        </g>
    </g>
</svg>
