<?xml version="1.0" encoding="UTF-8" standalone="no"?>
<!DOCTYPE svg PUBLIC "-//W3C//DTD SVG 1.1//EN" "http://www.w3.org/Graphics/SVG/1.1/DTD/svg11.dtd">
<svg width="100%" height="100%" viewBox="0 0 473 473" version="1.1" xmlns="http://www.w3.org/2000/svg" xmlns:xlink="http://www.w3.org/1999/xlink" xml:space="preserve" xmlns:serif="http://www.serif.com/" style="fill-rule:evenodd;clip-rule:evenodd;stroke-linejoin:round;stroke-miterlimit:1.41421;">
    <g transform="matrix(1,0,0,1,-54.0375,-493.142)">
        <g id="Logo-Eolien" serif:id="Logo Eolien" transform="matrix(7.14219,0,0,6.6847,-1344.25,-1060.23)">
            <g transform="matrix(1,0,0,1,180.513,214.816)">
                <path d="M71.38,41.159C74.847,37.708 75.762,31.607 73.51,27.262C71.264,22.931 66.193,20.047 61.306,21.068C56.567,21.903 53.013,26.355 53.162,31.13C53.292,35.301 56.616,39.366 61.044,39.242C64.542,39.143 67.743,36.945 67.974,33.188C68.088,31.343 67.371,29.461 65.854,28.346C64.013,26.991 61.132,27.007 59.576,28.804C58.129,30.477 58.266,33.398 60.416,34.43C62.174,35.274 64.602,33.992 64.174,31.944C64.174,32.191 64.117,32.525 64.104,32.586C63.972,33.16 63.627,33.664 63.117,33.964C62.032,34.603 60.497,34.164 59.841,33.117C58.435,30.87 60.682,28.404 63.038,28.717C64.974,28.974 66.219,30.707 66.193,32.581C66.161,34.836 64.456,36.509 62.323,36.911C58.871,37.561 56.085,34.645 55.848,31.37C55.523,26.868 59.899,23.377 64.188,23.916C66.347,24.187 68.344,25.429 69.717,27.091C71.22,28.91 71.703,31.073 71.57,33.392C71.432,35.792 70.499,38.077 68.6,39.613C66.652,41.181 64.101,41.897 61.665,42.241C58.856,42.639 55.984,42.56 53.154,42.639C50.378,42.716 47.603,42.81 44.828,42.899C34.968,43.216 25.108,43.684 15.266,44.348C29.031,44.989 42.821,45.256 56.601,45.285C61.727,45.296 67.511,45.009 71.38,41.159Z" style="fill:rgb(191,200,224);fill-rule:nonzero;"/>
            </g>
            <g transform="matrix(1,0,0,1,180.513,214.816)">
                <path d="M64.174,31.944C64.175,31.811 64.16,31.702 64.112,31.679C64.141,31.769 64.156,31.857 64.174,31.944Z" style="fill:rgb(40,152,183);fill-rule:nonzero;"/>
            </g>
            <g transform="matrix(1,0,0,1,180.513,214.816)">
                <path d="M72.814,48.48C77.292,46.144 80.261,41.849 81.11,36.892C81.937,32.062 81.14,27.003 77.931,23.198C75.072,19.809 71.06,17.91 66.684,17.561C71.808,18.842 76.481,22.306 78.317,27.411C80.131,32.979 78.781,40.139 74.207,44.015C70.146,47.456 64.801,47.833 59.716,47.833C54.068,47.832 48.427,47.809 42.78,47.938C33.608,48.146 24.401,48.492 15.266,49.382C30.436,50.648 45.75,50.786 60.964,50.928C65.013,50.966 69.19,50.372 72.814,48.48Z" style="fill:rgb(140,142,162);fill-rule:nonzero;"/>
            </g>
            <g transform="matrix(1,0,0,1,180.513,214.816)">
                <path d="M64.16,83.17C64.144,83.248 64.137,83.326 64.112,83.403C64.146,83.387 64.156,83.285 64.16,83.17Z" style="fill:rgb(40,152,183);fill-rule:nonzero;"/>
            </g>
            <g transform="matrix(1,0,0,1,180.513,214.816)">
                <path d="M73.846,68.436C71.883,63.334 66.699,61.177 61.598,60.668C58.808,60.39 55.977,60.508 53.177,60.527C50.4,60.547 47.624,60.583 44.847,60.615C34.985,60.726 25.118,60.99 15.266,61.449C20.204,61.781 25.145,62.042 30.088,62.297C35.577,62.579 41.072,62.788 46.566,62.95C49.329,63.045 52.092,63.132 54.856,63.203C57.685,63.275 60.534,63.236 63.313,63.851C65.622,64.362 68.01,65.312 69.592,67.142C71.18,68.978 71.698,71.432 71.575,73.809C71.347,78.22 67.462,82.141 62.922,81.922C58.918,81.729 55.101,78.034 55.902,73.815C56.318,71.625 57.559,69.79 59.758,69.079C60.802,68.741 62.012,68.713 63.064,69.048C65.241,69.743 66.504,71.949 66.104,74.172C65.755,76.112 63.8,77.402 61.879,77.05C59.714,76.721 58.51,73.664 60.294,72.152C61.185,71.398 62.645,71.286 63.513,72.137C63.868,72.484 64.086,72.949 64.144,73.441C64.149,73.482 64.165,73.703 64.16,73.884C64.4,72.716 63.665,71.543 62.515,71.201C60.951,70.735 59.304,71.688 58.797,73.208C57.731,76.408 60.954,78.961 63.953,78.302C66.785,77.679 68.322,74.842 67.921,72.095C67.508,69.261 65.358,67.323 62.659,66.695C59.409,65.938 55.858,67.765 54.253,70.598C51.832,74.871 53.57,80.431 57.498,83.124C61.717,86.017 67.289,85.206 70.971,81.826C74.662,78.437 75.63,73.075 73.846,68.436Z" style="fill:rgb(140,142,162);fill-rule:nonzero;"/>
            </g>
            <g transform="matrix(1,0,0,1,180.513,214.816)">
                <path d="M69.506,55.975C66.152,54.97 62.761,54.851 59.297,54.883C53.906,54.934 48.515,55.067 43.125,55.177C33.842,55.365 24.521,55.642 15.266,56.414C26.649,57.523 38.158,57.895 49.589,57.981C52.408,58.003 55.228,57.986 58.046,57.97C60.696,57.954 63.429,57.835 66.048,58.305C70.892,59.172 75.344,61.483 77.501,66.116C79.51,70.431 79.782,76.121 77.411,80.346C75.114,84.438 71.178,87.112 66.684,88.236C74.023,87.65 80.358,82.338 81.245,74.868C81.733,70.758 81.07,66.408 78.855,62.861C76.724,59.45 73.329,57.121 69.506,55.975Z" style="fill:rgb(191,200,224);fill-rule:nonzero;"/>
            </g>
        </g>
    </g>
</svg>
