<?xml version="1.0" encoding="UTF-8" standalone="no"?>
<!DOCTYPE svg PUBLIC "-//W3C//DTD SVG 1.1//EN" "http://www.w3.org/Graphics/SVG/1.1/DTD/svg11.dtd">
<svg width="100%" height="100%" viewBox="0 0 473 473" version="1.1" xmlns="http://www.w3.org/2000/svg" xmlns:xlink="http://www.w3.org/1999/xlink" xml:space="preserve" xmlns:serif="http://www.serif.com/" style="fill-rule:evenodd;clip-rule:evenodd;stroke-linejoin:round;stroke-miterlimit:1.41421;">
    <g transform="matrix(1,0,0,1,-69.5791,-1496.95)">
        <g id="Logo-Nucléaire" serif:id="Logo Nucléaire" transform="matrix(28.4903,0,0,27.843,-6933.72,-3031.19)">
            <g transform="matrix(0.144164,0,0,0.147515,186.174,139.605)">
                <path d="M528.715,213.607C528.715,245.37 502.966,271.12 471.202,271.12C439.439,271.12 413.69,245.37 413.69,213.607C413.69,181.843 439.439,156.094 471.202,156.094C502.966,156.094 528.715,181.843 528.715,213.607Z" style="fill:rgb(241,197,122);fill-rule:nonzero;"/>
            </g>
            <g transform="matrix(0.144164,0,0,0.147515,186.174,139.605)">
                <path d="M494.989,254.807C487.99,258.858 479.871,261.187 471.202,261.187C462.534,261.187 454.415,258.858 447.415,254.807C433.196,246.58 423.622,231.217 423.622,213.607C423.622,195.998 433.196,180.634 447.415,172.406C454.415,168.356 462.534,166.027 471.202,166.027C479.871,166.027 487.99,168.356 494.989,172.406C509.209,180.634 518.781,195.998 518.781,213.607C518.781,231.217 509.209,246.58 494.989,254.807ZM497.938,167.301C490.07,162.749 480.945,160.13 471.202,160.13C461.46,160.13 452.334,162.748 444.467,167.3C428.486,176.547 417.726,193.815 417.726,213.607C417.726,233.399 428.486,250.666 444.467,259.914C452.334,264.465 461.46,267.084 471.202,267.084C480.945,267.084 490.07,264.465 497.938,259.914C513.919,250.666 524.679,233.399 524.679,213.607C524.679,193.815 513.919,176.548 497.938,167.301Z" style="fill:rgb(71,80,81);fill-rule:nonzero;"/>
            </g>
            <g transform="matrix(0.144164,0,0,0.147515,186.174,139.605)">
                <path d="M476.075,204.956L493.41,174.931C486.875,171.15 479.295,168.975 471.202,168.975C463.11,168.975 455.53,171.15 448.995,174.931L466.33,204.956C467.77,204.122 469.419,203.61 471.202,203.61C472.986,203.61 474.635,204.122 476.075,204.956Z" style="fill:rgb(71,80,81);fill-rule:nonzero;"/>
            </g>
            <g transform="matrix(0.144164,0,0,0.147515,186.174,139.605)">
                <path d="M480.988,213.395C480.988,217.016 478.998,220.142 476.075,221.834L493.41,251.859C506.685,244.178 515.622,229.835 515.622,213.395L480.988,213.395Z" style="fill:rgb(71,80,81);fill-rule:nonzero;"/>
            </g>
            <g transform="matrix(0.144164,0,0,0.147515,186.174,139.605)">
                <path d="M461.417,213.395L426.782,213.395C426.782,229.835 435.72,244.178 448.995,251.859L466.33,221.834C463.406,220.142 461.417,217.016 461.417,213.395Z" style="fill:rgb(71,80,81);fill-rule:nonzero;"/>
            </g>
            <g transform="matrix(0.144164,0,0,0.147515,186.174,139.605)">
                <path d="M478.532,213.395C478.532,217.443 475.25,220.724 471.202,220.724C467.155,220.724 463.873,217.443 463.873,213.395C463.873,209.347 467.155,206.066 471.202,206.066C475.25,206.066 478.532,209.347 478.532,213.395Z" style="fill:rgb(71,80,81);fill-rule:nonzero;"/>
            </g>
        </g>
    </g>
</svg>
