<?xml version="1.0" encoding="UTF-8" standalone="no"?>
<!DOCTYPE svg PUBLIC "-//W3C//DTD SVG 1.1//EN" "http://www.w3.org/Graphics/SVG/1.1/DTD/svg11.dtd">
<svg width="100%" height="100%" viewBox="0 0 473 473" version="1.1" xmlns="http://www.w3.org/2000/svg" xmlns:xlink="http://www.w3.org/1999/xlink" xml:space="preserve" xmlns:serif="http://www.serif.com/" style="fill-rule:evenodd;clip-rule:evenodd;stroke-linejoin:round;stroke-miterlimit:1.41421;">
    <g transform="matrix(1,0,0,1,-91.4518,-1960.33)">
        <g id="Logo-Petrole" serif:id="Logo Petrole" transform="matrix(10.0346,0,0,6.61617,-1625.64,1057.78)">
            <g transform="matrix(1,0,0,1,155.162,130.936)">
                <rect x="16.18" y="50.341" width="46.414" height="2.202" style="fill:rgb(37,35,31);fill-rule:nonzero;"/>
            </g>
            <g transform="matrix(1,0,0,1,155.162,130.936)">
                <path d="M15.954,51.757C15.954,49.206 26.467,47.141 39.433,47.141C52.391,47.141 62.904,49.206 62.904,51.757L62.904,50.06C62.904,47.508 52.391,45.443 39.433,45.443C26.467,45.443 15.954,47.508 15.954,50.06L15.954,51.757Z" style="fill:rgb(37,35,31);fill-rule:nonzero;"/>
            </g>
            <g transform="matrix(1,0,0,1,155.162,130.936)">
                <rect x="16.18" y="30.525" width="46.414" height="2.202" style="fill:rgb(37,35,31);fill-rule:nonzero;"/>
            </g>
            <g transform="matrix(1,0,0,1,155.162,130.936)">
                <path d="M15.954,31.941C15.954,29.389 26.467,27.325 39.433,27.325C52.391,27.325 62.904,29.389 62.904,31.941L62.904,30.244C62.904,27.692 52.391,25.628 39.433,25.628C26.467,25.628 15.954,27.692 15.954,30.244L15.954,31.941Z" style="fill:rgb(37,35,31);fill-rule:nonzero;"/>
            </g>
            <g transform="matrix(1,0,0,1,155.162,130.936)">
                <rect x="16.18" y="69.206" width="46.414" height="2.202" style="fill:rgb(37,35,31);fill-rule:nonzero;"/>
            </g>
            <g transform="matrix(1,0,0,1,155.162,130.936)">
                <path d="M15.954,70.623C15.954,68.071 26.467,66.006 39.433,66.006C52.391,66.006 62.904,68.071 62.904,70.623L62.904,68.925C62.904,66.374 52.391,64.309 39.433,64.309C26.467,64.309 15.954,66.374 15.954,68.925L15.954,70.623Z" style="fill:rgb(37,35,31);fill-rule:nonzero;"/>
            </g>
            <g transform="matrix(1,0,0,1,155.162,130.936)">
                <path d="M20.706,14.752L61.788,14.752L61.788,73.571L16.882,73.571L16.882,14.752L20.706,14.752Z" style="fill:rgb(52,49,44);fill-rule:nonzero;"/>
            </g>
            <g transform="matrix(1,0,0,1,155.162,130.936)">
                <path d="M48.562,14.752L61.788,14.752L61.788,73.571L47.33,73.571L47.33,14.752L48.562,14.752Z" style="fill:rgb(42,40,36);fill-rule:nonzero;"/>
            </g>
            <g transform="matrix(1,0,0,1,155.162,130.936)">
                <path d="M18.955,73.571L19.44,71.387L19.44,52.841L20.073,51.76L19.44,33.879C20.308,32.072 20.706,14.752 20.706,14.752L16.882,14.752L16.882,73.571L18.955,73.571Z" style="fill:rgb(94,91,86);fill-rule:nonzero;"/>
            </g>
            <g transform="matrix(1,0,0,1,155.162,130.936)">
                <path d="M16.086,13.443C16.086,15.991 26.596,18.056 39.56,18.056C52.524,18.056 63.034,15.991 63.034,13.443L63.034,11.791L16.086,11.791L16.086,13.443Z" style="fill:rgb(66,62,56);fill-rule:nonzero;"/>
            </g>
            <g transform="matrix(1,0,0,1,155.162,130.936)">
                <path d="M63.035,11.794C63.035,12.612 61.953,13.38 60.053,14.041C56.031,15.453 48.359,16.402 39.564,16.402C30.785,16.402 23.129,15.453 19.099,14.057L19.082,14.049C17.174,13.38 16.084,12.612 16.084,11.794C16.084,9.242 26.598,7.178 39.564,7.178C52.522,7.178 63.035,9.242 63.035,11.794Z" style="fill:rgb(52,49,44);fill-rule:nonzero;"/>
            </g>
            <g transform="matrix(1,0,0,1,155.162,130.936)">
                <path d="M49.636,11.744C49.636,11.89 49.768,12.028 49.998,12.148L50,12.149C50.485,12.399 51.408,12.569 52.466,12.569C53.526,12.569 54.451,12.399 54.936,12.146C55.165,12.028 55.295,11.89 55.295,11.744L55.295,10.093L49.636,10.093L49.636,11.744Z" style="fill:rgb(52,49,44);fill-rule:nonzero;"/>
            </g>
            <g transform="matrix(1,0,0,1,155.162,130.936)">
                <path d="M16.084,11.794C16.084,9.242 26.598,7.178 39.564,7.178C52.522,7.178 63.035,9.242 63.035,11.794L63.035,10.097C63.035,7.545 52.522,5.48 39.564,5.48C26.598,5.48 16.084,7.545 16.084,10.097L16.084,11.794Z" style="fill:rgb(37,35,31);fill-rule:nonzero;"/>
            </g>
            <g transform="matrix(1,0,0,1,155.162,130.936)">
                <path d="M63.035,10.135C63.035,12.688 52.522,14.752 39.555,14.752C26.597,14.752 16.084,12.688 16.084,10.135L16.084,11.833C16.084,14.385 26.597,16.449 39.555,16.449C52.522,16.449 63.035,14.385 63.035,11.833L63.035,10.135Z" style="fill:rgb(112,108,103);fill-rule:nonzero;"/>
            </g>
            <g transform="matrix(1,0,0,1,155.162,130.936)">
                <path d="M62.904,70.619L62.904,72.271C62.904,74.822 52.391,76.887 39.433,76.887C26.467,76.887 15.954,74.822 15.954,72.271L15.954,70.619L17.507,70.619C20.884,72.353 29.432,73.584 39.425,73.584C49.426,73.584 57.974,72.353 61.352,70.619L62.904,70.619Z" style="fill:rgb(66,62,56);fill-rule:nonzero;"/>
            </g>
            <g transform="matrix(1,0,0,1,155.162,130.936)">
                <path d="M62.904,68.967L62.904,70.66C62.904,73.212 52.391,75.276 39.425,75.276C26.467,75.276 15.954,73.212 15.954,70.66L15.954,68.967C15.954,69.248 16.086,69.528 16.334,69.793C16.59,70.082 16.986,70.355 17.507,70.619C20.884,72.353 29.432,73.584 39.425,73.584C49.426,73.584 57.974,72.353 61.352,70.619C61.872,70.355 62.269,70.082 62.524,69.793C62.772,69.528 62.904,69.248 62.904,68.967Z" style="fill:rgb(112,108,103);fill-rule:nonzero;"/>
            </g>
            <g transform="matrix(1,0,0,1,155.162,130.936)">
                <path d="M62.904,51.559L62.904,53.211C62.904,55.763 52.391,57.827 39.433,57.827C26.467,57.827 15.954,55.763 15.954,53.211L15.954,51.559L17.507,51.559C20.884,53.293 29.432,54.524 39.425,54.524C49.426,54.524 57.974,53.293 61.352,51.559L62.904,51.559Z" style="fill:rgb(66,62,56);fill-rule:nonzero;"/>
            </g>
            <g transform="matrix(1,0,0,1,155.162,130.936)">
                <path d="M62.904,49.907L62.904,51.6C62.904,54.152 52.391,56.217 39.425,56.217C26.467,56.217 15.954,54.152 15.954,51.6L15.954,49.907C15.954,50.188 16.086,50.469 16.334,50.733C16.59,51.022 16.986,51.295 17.507,51.559C20.884,53.293 29.432,54.524 39.425,54.524C49.426,54.524 57.974,53.293 61.352,51.559C61.872,51.295 62.269,51.022 62.524,50.733C62.772,50.469 62.904,50.188 62.904,49.907Z" style="fill:rgb(112,108,103);fill-rule:nonzero;"/>
            </g>
            <g transform="matrix(1,0,0,1,155.162,130.936)">
                <path d="M62.904,31.673L62.904,33.325C62.904,35.877 52.391,37.941 39.433,37.941C26.467,37.941 15.954,35.877 15.954,33.325L15.954,31.673L17.507,31.673C20.884,33.408 29.432,34.638 39.425,34.638C49.426,34.638 57.974,33.408 61.352,31.673L62.904,31.673Z" style="fill:rgb(66,62,56);fill-rule:nonzero;"/>
            </g>
            <g transform="matrix(1,0,0,1,155.162,130.936)">
                <path d="M62.904,30.022L62.904,31.714C62.904,34.267 52.391,36.331 39.425,36.331C26.467,36.331 15.954,34.267 15.954,31.714L15.954,30.022C15.954,30.302 16.086,30.583 16.334,30.847C16.59,31.136 16.986,31.409 17.507,31.673C20.884,33.408 29.432,34.638 39.425,34.638C49.426,34.638 57.974,33.408 61.352,31.673C61.872,31.409 62.269,31.136 62.524,30.847C62.772,30.583 62.904,30.302 62.904,30.022Z" style="fill:rgb(112,108,103);fill-rule:nonzero;"/>
            </g>
            <g transform="matrix(1,0,0,1,155.162,130.936)">
                <path d="M55.295,10.093C55.295,10.239 55.165,10.377 54.936,10.495C54.451,10.748 53.526,10.918 52.466,10.918C51.408,10.918 50.485,10.748 50,10.498L49.998,10.497C49.768,10.377 49.636,10.239 49.636,10.093C49.636,9.636 50.903,9.267 52.466,9.267C54.028,9.267 55.295,9.636 55.295,10.093Z" style="fill:rgb(112,108,103);fill-rule:nonzero;"/>
            </g>
        </g>
    </g>
</svg>
