<?xml version="1.0" encoding="UTF-8" standalone="no"?>
<!DOCTYPE svg PUBLIC "-//W3C//DTD SVG 1.1//EN" "http://www.w3.org/Graphics/SVG/1.1/DTD/svg11.dtd">
<svg width="100%" height="100%" viewBox="0 0 473 473" version="1.1" xmlns="http://www.w3.org/2000/svg" xmlns:xlink="http://www.w3.org/1999/xlink" xml:space="preserve" xmlns:serif="http://www.serif.com/" style="fill-rule:evenodd;clip-rule:evenodd;stroke-linejoin:round;stroke-miterlimit:1.41421;">
    <g transform="matrix(1,0,0,1,-38.9261,-25.1185)">
        <g id="Logo-Solaire" serif:id="Logo Solaire" transform="matrix(1.99342,0,0,1.99342,-488.051,-507.223)">
            <g transform="matrix(1,0,0,1,-19.7101,-13.9131)">
                <path d="M461.578,399.462C461.578,432.052 435.158,458.472 402.568,458.472C369.978,458.472 343.558,432.052 343.558,399.462C343.558,366.871 369.978,340.452 402.568,340.452C435.158,340.452 461.578,366.871 461.578,399.462Z" style="fill:rgb(255,203,41);fill-rule:nonzero;"/>
            </g>
            <g transform="matrix(1,0,0,1,-19.7101,-13.9131)">
                <path d="M461.578,399.462L460.078,399.462C460.077,415.347 453.643,429.715 443.234,440.127C432.822,450.537 418.454,456.971 402.568,456.972C386.682,456.971 372.314,450.537 361.902,440.127C351.493,429.715 345.059,415.347 345.058,399.462C345.059,383.576 351.493,369.208 361.902,358.796C372.314,348.386 386.682,341.952 402.568,341.952C418.454,341.952 432.822,348.386 443.234,358.796C453.643,369.208 460.077,383.576 460.078,399.462L463.078,399.462C463.077,366.043 435.987,338.953 402.568,338.952C369.149,338.953 342.059,366.042 342.058,399.462C342.059,432.881 369.149,459.971 402.568,459.972C435.987,459.971 463.077,432.881 463.078,399.462L461.578,399.462Z" style="fill:rgb(239,109,34);fill-rule:nonzero;"/>
            </g>
            <g transform="matrix(1,0,0,1,-19.7101,-13.9131)">
                <path d="M402.659,451.236L402.568,451.236C373.974,451.236 350.794,428.056 350.794,399.462C350.794,370.868 373.974,347.688 402.568,347.688L402.659,347.688C404.354,347.691 404.721,350.069 403.122,350.632C382.988,357.724 368.555,376.902 368.555,399.462C368.555,422.022 382.988,441.2 403.122,448.292C404.721,448.855 404.354,451.232 402.659,451.236Z" style="fill:rgb(249,159,27);fill-rule:nonzero;"/>
            </g>
            <g transform="matrix(1,0,0,1,-19.7101,-13.9131)">
                <path d="M401.068,282.462L401.068,328.814C401.068,329.643 401.74,330.314 402.568,330.314C403.397,330.314 404.068,329.643 404.068,328.814L404.068,282.462C404.068,281.633 403.397,280.962 402.568,280.962C401.74,280.962 401.068,281.633 401.068,282.462Z" style="fill:rgb(239,109,34);fill-rule:nonzero;"/>
            </g>
            <g transform="matrix(1,0,0,1,-19.7101,-13.9131)">
                <path d="M342.769,298.887L365.945,339.029C366.36,339.747 367.277,339.993 367.994,339.578C368.712,339.164 368.958,338.247 368.544,337.529L345.367,297.387C344.953,296.669 344.036,296.423 343.318,296.838C342.601,297.252 342.355,298.169 342.769,298.887Z" style="fill:rgb(239,109,34);fill-rule:nonzero;"/>
            </g>
            <g transform="matrix(1,0,0,1,-19.7101,-13.9131)">
                <path d="M300.493,342.261L340.636,365.437C341.353,365.851 342.271,365.605 342.685,364.888C343.099,364.171 342.853,363.253 342.136,362.839L301.993,339.663C301.276,339.248 300.358,339.494 299.944,340.212C299.53,340.929 299.776,341.847 300.493,342.261Z" style="fill:rgb(239,109,34);fill-rule:nonzero;"/>
            </g>
            <g transform="matrix(1,0,0,1,-19.7101,-13.9131)">
                <path d="M285.568,400.962L331.921,400.962C332.749,400.962 333.421,400.29 333.421,399.462C333.421,398.633 332.749,397.962 331.921,397.962L285.568,397.962C284.74,397.962 284.068,398.633 284.068,399.462C284.068,400.29 284.74,400.962 285.568,400.962Z" style="fill:rgb(239,109,34);fill-rule:nonzero;"/>
            </g>
            <g transform="matrix(1,0,0,1,-19.7101,-13.9131)">
                <path d="M301.993,459.261L342.136,436.084C342.853,435.67 343.099,434.753 342.685,434.035C342.271,433.318 341.353,433.072 340.636,433.486L300.493,456.663C299.776,457.077 299.53,457.994 299.944,458.712C300.358,459.429 301.276,459.675 301.993,459.261Z" style="fill:rgb(239,109,34);fill-rule:nonzero;"/>
            </g>
            <g transform="matrix(1,0,0,1,-19.7101,-13.9131)">
                <path d="M345.367,501.537L368.544,461.394C368.958,460.677 368.712,459.759 367.994,459.345C367.277,458.931 366.36,459.177 365.945,459.894L342.769,500.037C342.355,500.754 342.601,501.672 343.318,502.086C344.036,502.5 344.953,502.254 345.367,501.537Z" style="fill:rgb(239,109,34);fill-rule:nonzero;"/>
            </g>
            <g transform="matrix(1,0,0,1,-19.7101,-13.9131)">
                <path d="M404.068,516.462L404.068,470.109C404.068,469.281 403.397,468.609 402.568,468.609C401.74,468.609 401.068,469.281 401.068,470.109L401.068,516.462C401.068,517.29 401.74,517.962 402.568,517.962C403.397,517.962 404.068,517.29 404.068,516.462Z" style="fill:rgb(239,109,34);fill-rule:nonzero;"/>
            </g>
            <g transform="matrix(1,0,0,1,-19.7101,-13.9131)">
                <path d="M462.367,500.037L439.191,459.894C438.777,459.177 437.859,458.931 437.142,459.345C436.424,459.759 436.179,460.677 436.593,461.394L459.769,501.537C460.183,502.254 461.101,502.5 461.818,502.086C462.536,501.672 462.781,500.754 462.367,500.037Z" style="fill:rgb(239,109,34);fill-rule:nonzero;"/>
            </g>
            <g transform="matrix(1,0,0,1,-19.7101,-13.9131)">
                <path d="M504.643,456.663L464.501,433.486C463.783,433.072 462.866,433.318 462.452,434.035C462.037,434.753 462.283,435.67 463.001,436.084L503.143,459.261C503.861,459.675 504.778,459.429 505.192,458.712C505.606,457.994 505.361,457.077 504.643,456.663Z" style="fill:rgb(239,109,34);fill-rule:nonzero;"/>
            </g>
            <g transform="matrix(1,0,0,1,-19.7101,-13.9131)">
                <path d="M519.568,397.962L473.215,397.962C472.387,397.962 471.715,398.633 471.715,399.462C471.715,400.29 472.387,400.962 473.215,400.962L519.568,400.962C520.396,400.962 521.068,400.29 521.068,399.462C521.068,398.633 520.396,397.962 519.568,397.962Z" style="fill:rgb(239,109,34);fill-rule:nonzero;"/>
            </g>
            <g transform="matrix(1,0,0,1,-19.7101,-13.9131)">
                <path d="M503.143,339.663L463.001,362.839C462.283,363.253 462.037,364.171 462.452,364.888C462.866,365.605 463.783,365.851 464.501,365.437L504.643,342.261C505.361,341.847 505.606,340.929 505.192,340.212C504.778,339.494 503.861,339.248 503.143,339.663Z" style="fill:rgb(239,109,34);fill-rule:nonzero;"/>
            </g>
            <g transform="matrix(1,0,0,1,-19.7101,-13.9131)">
                <path d="M459.769,297.387L436.593,337.529C436.179,338.247 436.424,339.164 437.142,339.578C437.859,339.993 438.777,339.747 439.191,339.029L462.367,298.887C462.781,298.169 462.536,297.252 461.818,296.838C461.101,296.423 460.183,296.669 459.769,297.387Z" style="fill:rgb(239,109,34);fill-rule:nonzero;"/>
            </g>
        </g>
    </g>
</svg>
